<?xml version="1.0" encoding="utf-8"?>
<!-- Generator: Adobe Illustrator 27.3.1, SVG Export Plug-In . SVG Version: 6.00 Build 0)  -->
<svg version="1.1" id="Layer_1" xmlns="http://www.w3.org/2000/svg" xmlns:xlink="http://www.w3.org/1999/xlink" x="0px" y="0px"
	 viewBox="0 0 142.5 32.4" style="enable-background:new 0 0 142.5 32.4;" xml:space="preserve">
<style type="text/css">
	.st0{fill:#FF4171;}
</style>
<path class="st0" d="M41,7.9h-4.1c-0.8,0-1.5-0.6-1.5-1.5V2.3c0-0.9-0.6-1.5-1.5-1.5h-4.1c-0.8,0-1.5,0.6-1.5,1.5v4.1
	c0,0.9,0.6,1.5,1.5,1.5h4.1c0.8,0,1.5,0.6,1.5,1.5v12.5c0,1.4-1.1,2.4-2.4,2.4c-0.9,0-1.7-0.5-2.2-1.2V23L19.3,5.4
	c-1.6-2.7-4.7-4.5-8.1-4.5c-0.9,0-1.6,0.1-2.4,0.3C5.5,2,2.9,4.6,2,7.9c-0.2,0.8-0.3,1.6-0.3,2.4V30c0,0.9,0.6,1.5,1.5,1.5h4.1
	c0.8,0,1.5-0.6,1.5-1.5V10.4C8.8,9,9.9,8,11.2,8c0.9,0,1.7,0.5,2.2,1.3L24.9,27c0.9,1.4,2,2.5,3.4,3.3s2.9,1.2,4.6,1.2
	c0.9,0,1.6-0.1,2.4-0.3c3.3-0.9,5.9-3.4,6.8-6.8c0.2-0.8,0.3-1.6,0.3-2.4V9.4C42.5,8.6,41.7,7.9,41,7.9L41,7.9L41,7.9z"/>
<path class="st0" d="M141,18.8v4.1c0,0.9-0.6,1.5-1.5,1.5h-4.1c-0.8,0-1.5,0.6-1.5,1.5V30c0,0.9-0.6,1.5-1.5,1.5h-17.7
	c-0.9,0-1.6-0.1-2.4-0.3c-3.3-0.9-5.9-3.4-6.8-6.8c-0.2-0.8-0.3-1.6-0.3-2.4V2.4c0-0.9,0.6-1.5,1.5-1.5h4.1c0.8,0,1.5,0.6,1.5,1.5
	v19.5c0,1.4,1.1,2.4,2.4,2.4h17.7c0.8,0,1.5-0.6,1.5-1.5v-4.1c0-0.9,0.6-1.5,1.5-1.5h4.1C140.3,17.3,140.9,17.9,141,18.8L141,18.8
	L141,18.8z"/>
<path class="st0" d="M97.7,7.9c-0.9-3.3-3.4-5.9-6.8-6.8c-0.8-0.2-1.6-0.3-2.4-0.3c-4.2,0-7.8,2.7-9,6.6l-4.6,12.2l-1.1,2.8
	l-1.1-2.8L68.1,7.5c-1.2-3.8-4.8-6.6-9.1-6.6c-0.9,0-1.6,0.1-2.4,0.3c-3.3,0.9-5.9,3.4-6.8,6.8c-0.2,0.7-0.3,1.5-0.3,2.3V30
	c0,0.9,0.6,1.5,1.5,1.5h4.1c0.8,0,1.5-0.6,1.5-1.5V10.5c0-1.4,1.1-2.5,2.4-2.6c1.1,0,2,0.6,2.4,1.6v0.1l3.2,8.5l2.4,6.2l1.2,3.2
	c0.4,1.3,1.4,2.4,2.5,3.1c0.9,0.6,1.9,0.9,3.1,0.9s2.2-0.3,3.1-0.9c1.2-0.7,2.2-1.9,2.6-3.3l1.1-2.9l2.4-6.2l3.2-8.5l0,0
	c0.4-1,1.4-1.8,2.6-1.6c1.3,0.1,2.2,1.3,2.2,2.5v12.3c0,0.9-0.6,1.5-1.5,1.5h-4.2c-0.8,0-1.5,0.6-1.5,1.5V30
	c0.1,0.8,0.7,1.4,1.5,1.4h4.2c0.8,0,1.5-0.6,1.5-1.5v-4.2c0-0.9,0.6-1.5,1.5-1.5h4.1c0.8,0,1.5-0.6,1.5-1.5V10.3
	C97.9,9.6,97.9,8.7,97.7,7.9L97.7,7.9L97.7,7.9z"/>
</svg>
