<svg width="25" height="25" viewBox="0 0 25 25" fill="none" xmlns="http://www.w3.org/2000/svg">
<path fill-rule="evenodd" clip-rule="evenodd" d="M6.30775 1.46484C5.12412 1.46484 3.98894 1.93492 3.15183 2.77171C2.31472 3.6085 1.8442 4.7435 1.84375 5.92713V17.8311C1.84375 19.0151 2.31406 20.1505 3.15123 20.9877C3.98839 21.8248 5.12382 22.2951 6.30775 22.2951H18.2117C19.3954 22.2947 20.5304 21.8242 21.3672 20.987C22.204 20.1499 22.674 19.0148 22.674 17.8311V5.92713C22.6736 4.7438 22.2033 3.60906 21.3666 2.77232C20.5298 1.93558 19.3951 1.4653 18.2117 1.46484H6.30775ZM19.4957 5.93399C19.4957 6.27498 19.3603 6.60201 19.1192 6.84312C18.8781 7.08424 18.551 7.2197 18.21 7.2197C17.869 7.2197 17.542 7.08424 17.3009 6.84312C17.0598 6.60201 16.9243 6.27498 16.9243 5.93399C16.9243 5.59299 17.0598 5.26597 17.3009 5.02485C17.542 4.78373 17.869 4.64827 18.21 4.64827C18.551 4.64827 18.8781 4.78373 19.1192 5.02485C19.3603 5.26597 19.4957 5.59299 19.4957 5.93399ZM12.2615 8.31342C11.3158 8.31342 10.4088 8.68909 9.74012 9.35779C9.07142 10.0265 8.69575 10.9334 8.69575 11.8791C8.69575 12.8248 9.07142 13.7318 9.74012 14.4005C10.4088 15.0692 11.3158 15.4448 12.2615 15.4448C13.2071 15.4448 14.1141 15.0692 14.7828 14.4005C15.4515 13.7318 15.8272 12.8248 15.8272 11.8791C15.8272 10.9334 15.4515 10.0265 14.7828 9.35779C14.1141 8.68909 13.2071 8.31342 12.2615 8.31342ZM6.97975 11.8791C6.97975 10.4788 7.53603 9.1358 8.52623 8.14561C9.51642 7.15541 10.8594 6.59913 12.2597 6.59913C13.6601 6.59913 15.0031 7.15541 15.9933 8.14561C16.9835 9.1358 17.5397 10.4788 17.5397 11.8791C17.5397 13.2795 16.9835 14.6225 15.9933 15.6127C15.0031 16.6028 13.6601 17.1591 12.2597 17.1591C10.8594 17.1591 9.51642 16.6028 8.52623 15.6127C7.53603 14.6225 6.97975 13.2795 6.97975 11.8791Z" fill="#282828"/>
</svg>
