<svg width="25" height="25" viewBox="0 0 25 25" fill="none" xmlns="http://www.w3.org/2000/svg">
<path d="M12.625 2.24219C7.105 2.24219 2.625 6.72219 2.625 12.2422C2.625 17.7622 7.105 22.2422 12.625 22.2422C18.145 22.2422 22.625 17.7622 22.625 12.2422C22.625 6.72219 18.145 2.24219 12.625 2.24219ZM17.265 9.04219C17.115 10.6222 16.465 14.4622 16.135 16.2322C15.995 16.9822 15.715 17.2322 15.455 17.2622C14.875 17.3122 14.435 16.8822 13.875 16.5122C12.995 15.9322 12.495 15.5722 11.645 15.0122C10.655 14.3622 11.295 14.0022 11.865 13.4222C12.015 13.2722 14.575 10.9422 14.625 10.7322C14.6319 10.7004 14.631 10.6674 14.6223 10.636C14.6136 10.6046 14.5974 10.5759 14.575 10.5522C14.515 10.5022 14.435 10.5222 14.365 10.5322C14.275 10.5522 12.875 11.4822 10.145 13.3222C9.745 13.5922 9.385 13.7322 9.065 13.7222C8.705 13.7122 8.025 13.5222 7.515 13.3522C6.885 13.1522 6.395 13.0422 6.435 12.6922C6.455 12.5122 6.705 12.3322 7.175 12.1422C10.095 10.8722 12.035 10.0322 13.005 9.63219C15.785 8.47219 16.355 8.27219 16.735 8.27219C16.815 8.27219 17.005 8.29219 17.125 8.39219C17.225 8.47219 17.255 8.58219 17.265 8.66219C17.255 8.72219 17.275 8.90219 17.265 9.04219Z" fill="#282828"/>
</svg>
