<svg width="25" height="25" viewBox="0 0 25 25" fill="none" xmlns="http://www.w3.org/2000/svg">
<path d="M20.7081 7.90884H14.8749V6.24219H20.7081V7.90884ZM22.1465 16.2421C21.7781 17.3229 20.4556 18.7421 17.8957 18.7421C15.334 18.7421 13.259 17.3012 13.259 14.0129C13.259 10.7546 15.1965 9.07966 17.814 9.07966C20.3823 9.07966 21.9506 10.5646 22.2931 12.768C22.3581 13.1896 22.3839 13.7579 22.3723 14.5513H15.6832C15.7915 17.2271 18.5857 17.3112 19.5065 16.2421H22.1465ZM15.7415 12.9088H19.879C19.7915 11.6196 18.9323 11.0596 17.8148 11.0596C16.5932 11.0596 15.9174 11.6996 15.7415 12.9088ZM7.76328 18.7321H2.375V6.25969H8.1691C12.7324 6.32719 12.8191 10.7963 10.4357 12.0146C13.3199 13.0646 13.4165 18.7321 7.76328 18.7321ZM4.87497 11.2421H7.86161C9.95158 11.2421 10.2832 8.74216 7.60161 8.74216H4.87497V11.2421ZM7.70078 13.7421H4.87497V16.2554H7.65911C10.2049 16.2554 10.0491 13.7421 7.70078 13.7421Z" fill="#282828"/>
</svg>
