<svg width="40" height="41" viewBox="0 0 40 41" fill="none" xmlns="http://www.w3.org/2000/svg">
<path d="M3.33398 20.5007H36.6673M3.33398 20.5007C3.33398 29.7054 10.7959 37.1673 20.0007 37.1673M3.33398 20.5007C3.33398 11.2959 10.7959 3.83398 20.0007 3.83398M36.6673 20.5007C36.6673 29.7054 29.2054 37.1673 20.0007 37.1673M36.6673 20.5007C36.6673 11.2959 29.2054 3.83398 20.0007 3.83398M20.0007 3.83398C24.1695 8.39791 26.5386 14.3207 26.6673 20.5007C26.5386 26.6806 24.1695 32.6034 20.0007 37.1673M20.0007 3.83398C15.8319 8.39791 13.4627 14.3207 13.334 20.5007C13.4627 26.6806 15.8319 32.6034 20.0007 37.1673" stroke="#FF3E71" stroke-width="2.5" stroke-linecap="round" stroke-linejoin="round"/>
</svg>
