<svg width="40" height="41" viewBox="0 0 40 41" fill="none" xmlns="http://www.w3.org/2000/svg">
<path d="M11.1474 36.5126L11.5602 35.3328L11.1474 36.5126ZM3.98868 29.3539L5.16853 28.9411L3.98868 29.3539ZM36.0126 29.3539L34.8328 28.9411L36.0126 29.3539ZM28.8539 36.5126L28.4411 35.3328L28.8539 36.5126ZM28.8539 4.48868L28.4411 5.66853L28.8539 4.48868ZM36.0126 11.6474L34.8328 12.0602L36.0126 11.6474ZM11.1474 4.48868L11.5602 5.66853L11.1474 4.48868ZM3.98868 11.6474L5.16853 12.0602L3.98868 11.6474ZM26.0126 21.4382C26.0126 20.7478 25.4529 20.1882 24.7626 20.1882C24.0722 20.1882 23.5126 20.7478 23.5126 21.4382H26.0126ZM23.5126 24.2507C23.5126 24.941 24.0722 25.5007 24.7626 25.5007C25.4529 25.5007 26.0126 24.941 26.0126 24.2507H23.5126ZM21.2507 17.3275C21.2507 16.6371 20.691 16.0775 20.0007 16.0775C19.3103 16.0775 18.7507 16.6371 18.7507 17.3275H21.2507ZM18.7507 24.2505C18.7507 24.9409 19.3103 25.5005 20.0007 25.5005C20.691 25.5005 21.2507 24.9409 21.2507 24.2505H18.7507ZM16.4887 13.0007C16.4887 12.3103 15.9291 11.7507 15.2387 11.7507C14.5484 11.7507 13.9887 12.3103 13.9887 13.0007H16.4887ZM13.9887 24.2507C13.9887 24.941 14.5484 25.5007 15.2387 25.5007C15.9291 25.5007 16.4887 24.941 16.4887 24.2507H13.9887ZM26.6673 29.2507C27.3577 29.2507 27.9173 28.691 27.9173 28.0007C27.9173 27.3103 27.3577 26.7507 26.6673 26.7507V29.2507ZM13.334 26.7507C12.6436 26.7507 12.084 27.3103 12.084 28.0007C12.084 28.691 12.6436 29.2507 13.334 29.2507V26.7507ZM20.0007 35.9173C15.2412 35.9173 13.1803 35.8996 11.5602 35.3328L10.7345 37.6925C12.8566 38.435 15.4504 38.4173 20.0007 38.4173V35.9173ZM2.08398 20.5007C2.08398 25.0509 2.0663 27.6447 2.80882 29.7668L5.16853 28.9411C4.60167 27.321 4.58398 25.2601 4.58398 20.5007H2.08398ZM11.5602 35.3328C8.56809 34.2858 6.21553 31.9332 5.16853 28.9411L2.80882 29.7668C4.10711 33.477 7.02427 36.3942 10.7345 37.6925L11.5602 35.3328ZM35.4173 20.5007C35.4173 25.2601 35.3996 27.321 34.8328 28.9411L37.1925 29.7668C37.935 27.6447 37.9173 25.0509 37.9173 20.5007H35.4173ZM20.0007 38.4173C24.5509 38.4173 27.1447 38.435 29.2668 37.6925L28.4411 35.3328C26.821 35.8996 24.7601 35.9173 20.0007 35.9173V38.4173ZM34.8328 28.9411C33.7858 31.9332 31.4332 34.2858 28.4411 35.3328L29.2668 37.6925C32.977 36.3942 35.8942 33.477 37.1925 29.7668L34.8328 28.9411ZM20.0007 5.08398C24.7601 5.08398 26.821 5.10167 28.4411 5.66853L29.2668 3.30882C27.1447 2.5663 24.5509 2.58398 20.0007 2.58398V5.08398ZM37.9173 20.5007C37.9173 15.9504 37.935 13.3566 37.1925 11.2345L34.8328 12.0602C35.3996 13.6803 35.4173 15.7412 35.4173 20.5007H37.9173ZM28.4411 5.66853C31.4332 6.71553 33.7858 9.06809 34.8328 12.0602L37.1925 11.2345C35.8942 7.52427 32.977 4.60711 29.2668 3.30882L28.4411 5.66853ZM20.0007 2.58398C15.4504 2.58398 12.8566 2.5663 10.7345 3.30882L11.5602 5.66853C13.1803 5.10167 15.2412 5.08398 20.0007 5.08398V2.58398ZM4.58398 20.5007C4.58398 15.7412 4.60167 13.6803 5.16853 12.0602L2.80882 11.2345C2.0663 13.3566 2.08398 15.9504 2.08398 20.5007H4.58398ZM10.7345 3.30882C7.02427 4.60711 4.10711 7.52427 2.80882 11.2345L5.16853 12.0602C6.21553 9.06809 8.56809 6.71553 11.5602 5.66853L10.7345 3.30882ZM23.5126 21.4382V24.2507H26.0126V21.4382H23.5126ZM18.7507 17.3275V24.2505H21.2507V17.3275H18.7507ZM13.9887 13.0007V24.2507H16.4887V13.0007H13.9887ZM26.6673 26.7507H13.334V29.2507H26.6673V26.7507Z" fill="#FF3E71"/>
</svg>
