<svg width="40" height="41" viewBox="0 0 40 41" fill="none" xmlns="http://www.w3.org/2000/svg">
<path d="M6.06403 34.1526L5.522 35.279L6.06403 34.1526ZM3.87895 32.0889L2.77884 32.6824L3.87895 32.0889ZM36.1223 32.0889L37.2225 32.6824L36.1223 32.0889ZM33.9373 34.1526L34.4793 35.279L33.9373 34.1526ZM33.9373 13.145L34.4793 12.0186L33.9373 13.145ZM36.1223 15.2087L37.2225 14.6152L36.1223 15.2087ZM6.06403 13.145L5.522 12.0186L6.06403 13.145ZM3.87895 15.2087L2.77884 14.6152L3.87895 15.2087ZM22.9614 6.49489L23.2681 5.28309L22.9614 6.49489ZM25.4173 12.6303C25.4173 13.3206 25.977 13.8803 26.6673 13.8803C27.3577 13.8803 27.9173 13.3206 27.9173 12.6303H25.4173ZM26.4969 9.83401L27.6995 9.49283L26.4969 9.83401ZM17.0399 6.49489L17.3466 7.70669L17.0399 6.49489ZM12.084 12.6303C12.084 13.3206 12.6436 13.8803 13.334 13.8803C14.0243 13.8803 14.584 13.3206 14.584 12.6303H12.084ZM13.5044 9.83401L14.7069 10.1752V10.1752L13.5044 9.83401ZM13.334 18.834C14.0243 18.834 14.584 18.2743 14.584 17.584C14.584 16.8936 14.0243 16.334 13.334 16.334V18.834ZM13.3257 16.334C12.6353 16.334 12.0757 16.8936 12.0757 17.584C12.0757 18.2743 12.6353 18.834 13.3257 18.834V16.334ZM26.6673 18.834C27.3577 18.834 27.9173 18.2743 27.9173 17.584C27.9173 16.8936 27.3577 16.334 26.6673 16.334V18.834ZM26.659 16.334C25.9686 16.334 25.409 16.8936 25.409 17.584C25.409 18.2743 25.9686 18.834 26.659 18.834V16.334ZM11.334 13.8803H28.6673V11.3803H11.334V13.8803ZM35.4173 20.1858V27.1118H37.9173V20.1858H35.4173ZM28.6673 33.4173H11.334V35.9173H28.6673V33.4173ZM4.58398 27.1118V20.1858H2.08398V27.1118H4.58398ZM11.334 33.4173C9.91436 33.4173 8.92066 33.4165 8.14616 33.3567C7.38429 33.2979 6.94172 33.1878 6.60606 33.0263L5.522 35.279C6.2559 35.6322 7.04818 35.7794 7.95382 35.8493C8.84684 35.9182 9.95334 35.9173 11.334 35.9173V33.4173ZM2.08398 27.1118C2.08398 28.4123 2.0829 29.4672 2.15676 30.321C2.23207 31.1917 2.39214 31.9657 2.77884 32.6824L4.97906 31.4954C4.8208 31.2021 4.70838 30.8098 4.64745 30.1056C4.58507 29.3845 4.58398 28.4559 4.58398 27.1118H2.08398ZM6.60606 33.0263C5.89415 32.6837 5.32876 32.1436 4.97906 31.4954L2.77884 32.6824C3.38788 33.8113 4.3523 34.7161 5.522 35.279L6.60606 33.0263ZM35.4173 27.1118C35.4173 28.4559 35.4162 29.3845 35.3538 30.1056C35.2929 30.8098 35.1805 31.2021 35.0222 31.4954L37.2225 32.6824C37.6092 31.9657 37.7692 31.1917 37.8445 30.321C37.9184 29.4672 37.9173 28.4123 37.9173 27.1118H35.4173ZM28.6673 35.9173C30.048 35.9173 31.1545 35.9182 32.0475 35.8493C32.9531 35.7794 33.7454 35.6322 34.4793 35.279L33.3952 33.0263C33.0596 33.1878 32.617 33.2979 31.8551 33.3567C31.0806 33.4165 30.0869 33.4173 28.6673 33.4173V35.9173ZM35.0222 31.4954C34.6725 32.1436 34.1072 32.6837 33.3952 33.0263L34.4793 35.279C35.649 34.7161 36.6134 33.8113 37.2225 32.6824L35.0222 31.4954ZM28.6673 13.8803C30.0869 13.8803 31.0806 13.8811 31.8551 13.9409C32.617 13.9997 33.0596 14.1098 33.3952 14.2713L34.4793 12.0186C33.7454 11.6654 32.9531 11.5182 32.0475 11.4483C31.1545 11.3794 30.048 11.3803 28.6673 11.3803V13.8803ZM37.9173 20.1858C37.9173 18.8853 37.9184 17.8304 37.8445 16.9766C37.7692 16.1059 37.6092 15.3319 37.2225 14.6152L35.0222 15.8022C35.1805 16.0955 35.2929 16.4878 35.3538 17.192C35.4162 17.9131 35.4173 18.8417 35.4173 20.1858H37.9173ZM33.3952 14.2713C34.1072 14.6139 34.6725 15.154 35.0222 15.8022L37.2225 14.6152C36.6134 13.4863 35.649 12.5815 34.4793 12.0186L33.3952 14.2713ZM11.334 11.3803C9.95334 11.3803 8.84684 11.3794 7.95382 11.4483C7.04818 11.5182 6.2559 11.6654 5.522 12.0186L6.60606 14.2713C6.94172 14.1098 7.38429 13.9997 8.14616 13.9409C8.92066 13.8811 9.91436 13.8803 11.334 13.8803V11.3803ZM4.58398 20.1858C4.58398 18.8417 4.58507 17.9131 4.64745 17.192C4.70838 16.4878 4.8208 16.0955 4.97906 15.8022L2.77884 14.6152C2.39214 15.3319 2.23207 16.1059 2.15676 16.9766C2.0829 17.8304 2.08398 18.8853 2.08398 20.1858H4.58398ZM5.522 12.0186C4.3523 12.5815 3.38788 13.4863 2.77884 14.6152L4.97906 15.8022C5.32876 15.154 5.89415 14.6139 6.60606 14.2713L5.522 12.0186ZM20.0007 7.58398C21.627 7.58398 22.208 7.59363 22.6548 7.70669L23.2681 5.28309C22.4432 5.07434 21.4742 5.08398 20.0007 5.08398V7.58398ZM27.9173 12.6303C27.9173 11.2512 27.9293 10.3027 27.6995 9.49283L25.2944 10.1752C25.4054 10.5663 25.4173 11.0817 25.4173 12.6303H27.9173ZM22.6548 7.70669C23.9745 8.04068 24.9613 9.00099 25.2944 10.1752L27.6995 9.49283C27.1079 7.40782 25.3992 5.8224 23.2681 5.28309L22.6548 7.70669ZM20.0007 5.08398C18.5271 5.08398 17.5581 5.07434 16.7332 5.28309L17.3466 7.70669C17.7933 7.59363 18.3743 7.58398 20.0007 7.58398V5.08398ZM14.584 12.6303C14.584 11.0817 14.5959 10.5663 14.7069 10.1752L12.3018 9.49283C12.072 10.3027 12.084 11.2512 12.084 12.6303H14.584ZM16.7332 5.28309C14.6021 5.8224 12.8934 7.40782 12.3018 9.49283L14.7069 10.1752C15.04 9.00099 16.0268 8.04068 17.3466 7.70669L16.7332 5.28309ZM13.334 16.334H13.3257V18.834H13.334V16.334ZM11.6673 17.584C11.6673 18.5045 12.4135 19.2507 13.334 19.2507V16.7507C13.7942 16.7507 14.1673 17.1237 14.1673 17.584H11.6673ZM13.334 19.2507C14.2545 19.2507 15.0007 18.5045 15.0007 17.584H12.5007C12.5007 17.1237 12.8737 16.7507 13.334 16.7507V19.2507ZM15.0007 17.584C15.0007 16.6635 14.2545 15.9173 13.334 15.9173V18.4173C12.8737 18.4173 12.5007 18.0442 12.5007 17.584H15.0007ZM13.334 15.9173C12.4135 15.9173 11.6673 16.6635 11.6673 17.584H14.1673C14.1673 18.0442 13.7942 18.4173 13.334 18.4173V15.9173ZM26.6673 16.334H26.659V18.834H26.6673V16.334ZM25.0007 17.584C25.0007 18.5045 25.7468 19.2507 26.6673 19.2507V16.7507C27.1276 16.7507 27.5007 17.1237 27.5007 17.584H25.0007ZM26.6673 19.2507C27.5878 19.2507 28.334 18.5045 28.334 17.584H25.834C25.834 17.1237 26.2071 16.7507 26.6673 16.7507V19.2507ZM28.334 17.584C28.334 16.6635 27.5878 15.9173 26.6673 15.9173V18.4173C26.2071 18.4173 25.834 18.0442 25.834 17.584H28.334ZM26.6673 15.9173C25.7468 15.9173 25.0007 16.6635 25.0007 17.584H27.5007C27.5007 18.0442 27.1276 18.4173 26.6673 18.4173V15.9173Z" fill="#FF3E71"/>
</svg>
