<svg width="158" height="60" viewBox="0 0 158 60" fill="none" xmlns="http://www.w3.org/2000/svg">
<path fill-rule="evenodd" clip-rule="evenodd" d="M56.0652 0.012207H69.8514L35.0401 60L0 0.012207H14.1L35.0401 36.1262L56.0652 0.012207Z" fill="#41B883"/>
<path fill-rule="evenodd" clip-rule="evenodd" d="M43.0369 0H56.149L35.023 36.1894L14.0664 0H26.9732L35.023 13.9322L43.0369 0Z" fill="#35495E"/>
<path fill-rule="evenodd" clip-rule="evenodd" d="M83.7422 16.8418C83.7422 16.4872 83.939 16.1916 84.3328 15.9552C84.7265 15.7188 85.1381 15.6006 85.5676 15.6006C86.1642 15.6006 86.5341 15.8252 86.6772 16.2744L92.9768 37.3397L99.2407 16.2744C99.4077 15.8252 99.7656 15.6006 100.314 15.6006C100.768 15.6006 101.191 15.7306 101.585 15.9907C101.979 16.2508 102.176 16.5463 102.176 16.8773C102.176 16.9009 102.17 16.9364 102.158 16.9837C102.146 17.0309 102.14 17.0782 102.14 17.1255L94.8739 40.7088C94.6114 41.3944 93.9791 41.7372 92.9768 41.7372C91.9746 41.7372 91.3661 41.3944 91.1514 40.7088L83.8138 17.1255C83.766 16.9837 83.7422 16.8891 83.7422 16.8418ZM102.458 34.9992V25.7786C102.458 25.4949 102.607 25.2467 102.905 25.0339C103.203 24.8211 103.555 24.7147 103.961 24.7147C104.343 24.7147 104.683 24.827 104.981 25.0516C105.279 25.2762 105.428 25.5186 105.428 25.7786V34.9992C105.428 36.0631 105.834 37.0206 106.645 37.8717C107.457 38.7228 108.423 39.1484 109.545 39.1484C110.642 39.1484 111.597 38.7287 112.408 37.8894C113.219 37.0501 113.625 36.0867 113.625 34.9992V25.7432C113.625 25.4831 113.774 25.2467 114.072 25.0339C114.371 24.8211 114.723 24.7147 115.128 24.7147C115.558 24.7147 115.91 24.8152 116.184 25.0162C116.459 25.2171 116.596 25.4595 116.596 25.7432V34.9992C116.596 36.8196 115.898 38.4096 114.502 39.769C113.106 41.1284 111.454 41.8082 109.545 41.8082C107.612 41.8082 105.947 41.1284 104.551 39.769C103.156 38.4096 102.458 36.8196 102.458 34.9992ZM119.025 34.9282V31.2046C119.025 29.3841 119.723 27.8119 121.119 26.4879C122.515 25.1639 124.192 24.5019 126.148 24.5019C128.009 24.5019 129.62 25.1225 130.98 26.3638C132.34 27.605 133.021 29.1595 133.021 31.0272C133.021 31.7129 132.937 32.2625 132.77 32.6763C132.603 33.09 132.346 33.3856 132 33.5629C131.654 33.7402 131.332 33.8525 131.034 33.8998C130.736 33.9471 130.336 33.9707 129.835 33.9707H121.996V35.0346C121.996 36.335 122.467 37.3752 123.41 38.1554C124.353 38.9356 125.576 39.3257 127.079 39.3257C127.866 39.3257 128.552 39.2075 129.137 38.9711C129.722 38.7346 130.193 38.5041 130.551 38.2795C130.909 38.0549 131.195 37.9426 131.41 37.9426C131.744 37.9426 132.03 38.0904 132.269 38.3859C132.508 38.6815 132.627 38.9829 132.627 39.2902C132.627 39.834 132.084 40.3896 130.998 40.957C129.912 41.5244 128.57 41.8082 126.971 41.8082C124.633 41.8082 122.724 41.1757 121.245 39.9109C119.765 38.646 119.025 36.9851 119.025 34.9282ZM121.996 31.9847H128.618C129.238 31.9847 129.656 31.9079 129.871 31.7542C130.085 31.6006 130.193 31.2991 130.193 30.8499C130.193 29.786 129.799 28.8521 129.012 28.0483C128.224 27.2444 127.258 26.8425 126.112 26.8425C124.991 26.8425 124.025 27.2149 123.213 27.9596C122.402 28.7044 121.996 29.6205 121.996 30.7081V31.9847ZM134.519 39.8931C134.519 39.373 134.698 38.9297 135.056 38.5632C135.414 38.1968 135.856 38.0136 136.381 38.0136C136.882 38.0136 137.311 38.1968 137.669 38.5632C138.027 38.9297 138.206 39.373 138.206 39.8931C138.206 40.3896 138.027 40.8211 137.669 41.1875C137.311 41.554 136.882 41.7372 136.381 41.7372C135.856 41.7372 135.414 41.554 135.056 41.1875C134.698 40.8211 134.519 40.3896 134.519 39.8931ZM137.164 48.3689C137.164 47.9906 137.283 47.6774 137.522 47.4291C137.76 47.1809 138.047 47.0568 138.381 47.0568C139.311 47.0568 139.92 46.7139 140.206 46.0283C140.492 45.3427 140.636 44.3143 140.636 42.943V25.7432C140.636 25.4358 140.773 25.1876 141.047 24.9984C141.322 24.8093 141.674 24.7147 142.103 24.7147C142.533 24.7147 142.891 24.8093 143.177 24.9984C143.463 25.1876 143.606 25.4358 143.606 25.7432V42.943C143.606 44.9999 143.201 46.6312 142.389 47.837C141.578 49.0427 140.349 49.6456 138.703 49.6456C137.677 49.6456 137.164 49.22 137.164 48.3689ZM140.242 18.4022C140.242 17.953 140.421 17.5629 140.779 17.2319C141.137 16.9009 141.578 16.7354 142.103 16.7354C142.604 16.7354 143.034 16.9009 143.392 17.2319C143.75 17.5629 143.929 17.953 143.929 18.4022C143.929 18.8514 143.75 19.2474 143.392 19.5902C143.034 19.9331 142.604 20.1045 142.103 20.1045C141.602 20.1045 141.166 19.9331 140.797 19.5902C140.427 19.2474 140.242 18.8514 140.242 18.4022ZM145.821 39.1129C145.821 38.8056 145.923 38.5041 146.125 38.2086C146.328 37.9131 146.573 37.7653 146.859 37.7653C147.05 37.7653 147.324 37.9072 147.682 38.1909C148.04 38.4746 148.553 38.7524 149.221 39.0243C149.89 39.2962 150.677 39.4321 151.584 39.4321C152.777 39.4321 153.642 39.2193 154.179 38.7938C154.716 38.3682 154.984 37.8362 154.984 37.1979C154.984 36.4177 154.686 35.7971 154.089 35.3361C153.493 34.875 152.765 34.5263 151.906 34.2899C151.047 34.0535 150.188 33.7934 149.329 33.5097C148.47 33.226 147.742 32.7531 147.145 32.0911C146.549 31.4291 146.251 30.5544 146.251 29.4668C146.251 28.1192 146.734 26.9548 147.7 25.9737C148.667 24.9925 150.14 24.5019 152.121 24.5019C153.385 24.5019 154.543 24.697 155.593 25.0871C156.643 25.4772 157.168 25.9205 157.168 26.417C157.168 26.7007 157.054 27.0198 156.828 27.3745C156.601 27.7291 156.32 27.9064 155.986 27.9064C155.891 27.9064 155.432 27.735 154.608 27.3922C153.785 27.0494 152.968 26.878 152.156 26.878C151.059 26.878 150.242 27.1321 149.705 27.6405C149.168 28.1488 148.899 28.7221 148.899 29.3604C148.899 30.0224 149.198 30.5426 149.794 30.9208C150.391 31.2991 151.124 31.5946 151.995 31.8074C152.866 32.0202 153.731 32.2803 154.59 32.5876C155.449 32.895 156.177 33.421 156.774 34.1658C157.37 34.9105 157.669 35.8739 157.669 37.056C157.669 38.5219 157.144 39.6803 156.094 40.5315C155.044 41.3826 153.576 41.8082 151.691 41.8082C150.069 41.8082 148.685 41.5185 147.539 40.9393C146.394 40.3601 145.821 39.7513 145.821 39.1129Z" fill="#010101"/>
</svg>
